<svg xmlns="http://www.w3.org/2000/svg" version="1.1" xmlns:xlink="http://www.w3.org/1999/xlink" xmlns:svgjs="http://svgjs.dev/svgjs" width="1000" height="750" viewBox="0 0 1000 750"><rect width="1000" height="750" fill="#000000"></rect><g transform="matrix(0.834,0,0,0.834,82.49454545454546,115.4193570850203)"><svg viewBox="0 0 396 247" data-background-color="#000000" preserveAspectRatio="xMidYMid meet" height="623" width="1000" xmlns="http://www.w3.org/2000/svg" xmlns:xlink="http://www.w3.org/1999/xlink"><g id="tight-bounds" transform="matrix(1,0,0,1,0.2400000000000091,-0.09999999999999432)"><svg viewBox="0 0 395.52 247.2" height="247.2" width="395.52"><g><svg></svg></g><g><svg viewBox="0 0 395.52 247.2" height="247.2" width="395.52"><g transform="matrix(1,0,0,1,75.54432,75.28304439537311)"><svg viewBox="0 0 244.43135999999998 96.63391120925377" height="96.63391120925377" width="244.43135999999998"><g><svg viewBox="0 0 386.4241923706811 152.7696" height="96.63391120925377" width="244.43135999999998"><g><svg viewBox="0 0 216.5382918918919 152.7696" height="152.7696" width="216.5382918918919"><g id="textblocktransform"><svg viewBox="0 0 216.5382918918919 152.7696" height="152.7696" width="216.5382918918919" id="textblock"><g><svg viewBox="0 0 216.5382918918919 152.7696" height="152.7696" width="216.5382918918919"><g transform="matrix(1,0,0,1,0,0)"><svg width="216.5382918918919" viewBox="-1.3 -33.3 47.199999999999996 33.3" height="152.7696" data-palette-color="#ffffff"><path d="M43.7-33.3Q44.75-33.3 45.33-32.95 45.9-32.6 45.9-32.05L45.9-32.05Q45.9-31.8 45.75-31.4L45.75-31.4Q45.6-31.05 45.33-30.78 45.05-30.5 44.83-30.38 44.6-30.25 44.5-30.15L44.5-30.15Q43.7-29.7 43.2-29.15 42.7-28.6 42.35-27.45L42.35-27.45 36.2-5.9Q36-5.25 36-4.65L36-4.65Q36-4.05 36.18-3.7 36.35-3.35 36.7-2.8L36.7-2.8Q36.75-2.75 36.98-2.43 37.2-2.1 37.2-1.75L37.2-1.75Q37.2-1.65 37.1-1.25L37.1-1.25Q36.85-0.55 36.15-0.28 35.45 0 34.05 0L34.05 0 22.3 0Q21.25 0 20.68-0.35 20.1-0.7 20.1-1.3L20.1-1.3Q20.1-1.6 20.25-1.95L20.25-1.95Q20.45-2.35 20.8-2.63 21.15-2.9 21.5-3.1L21.5-3.1Q22.3-3.55 22.8-4.13 23.3-4.7 23.65-5.9L23.65-5.9 26.05-14.25 17.2-14.25 14.8-5.9Q14.6-5.25 14.6-4.65L14.6-4.65Q14.6-4.05 14.78-3.7 14.95-3.35 15.3-2.8L15.3-2.8Q15.35-2.75 15.58-2.43 15.8-2.1 15.8-1.75L15.8-1.75Q15.8-1.65 15.7-1.25L15.7-1.25Q15.45-0.55 14.75-0.28 14.05 0 12.65 0L12.65 0 0.9 0Q-0.15 0-0.73-0.35-1.3-0.7-1.3-1.3L-1.3-1.3Q-1.3-1.6-1.15-1.95L-1.15-1.95Q-0.95-2.35-0.6-2.63-0.25-2.9 0.1-3.1L0.1-3.1Q0.9-3.55 1.4-4.13 1.9-4.7 2.25-5.9L2.25-5.9 8.4-27.45Q8.6-28.1 8.6-28.7L8.6-28.7Q8.6-29.25 8.43-29.63 8.25-30 7.95-30.5L7.95-30.5Q7.75-30.75 7.6-31.03 7.45-31.3 7.45-31.6L7.45-31.6Q7.45-31.7 7.55-32.1L7.55-32.1Q7.75-32.75 8.45-33.02 9.15-33.3 10.55-33.3L10.55-33.3 22.3-33.3Q23.35-33.3 23.93-32.95 24.5-32.6 24.5-32.05L24.5-32.05Q24.5-31.8 24.35-31.4L24.35-31.4Q24.2-31.05 23.93-30.78 23.65-30.5 23.43-30.38 23.2-30.25 23.1-30.15L23.1-30.15Q22.3-29.7 21.8-29.15 21.3-28.6 20.95-27.45L20.95-27.45 18.6-19.25 27.45-19.25 29.8-27.45Q30-28.1 30-28.7L30-28.7Q30-29.25 29.83-29.63 29.65-30 29.35-30.5L29.35-30.5Q29.15-30.75 29-31.03 28.85-31.3 28.85-31.6L28.85-31.6Q28.85-31.7 28.95-32.1L28.95-32.1Q29.15-32.75 29.85-33.02 30.55-33.3 31.95-33.3L31.95-33.3 43.7-33.3Z" opacity="1" transform="matrix(1,0,0,1,0,0)" fill="#ffffff" class="undefined-text-0" data-fill-palette-color="primary" id="text-0"></path></svg></g></svg></g></svg></g></svg></g><g transform="matrix(1,0,0,1,252.6035279814919,9.474467805405396)"><svg viewBox="0 0 133.8206643891892 133.8206643891892" height="133.8206643891892" width="133.8206643891892"><g data-palette-color="#8af0ca"><rect width="36.57764826637838" height="133.8206643891892" fill="#8af0ca" stroke="transparent" data-fill-palette-color="accent" x="0" fill-opacity="1"></rect><rect width="36.57764826637838" height="133.8206643891892" fill="#8af0ca" stroke="transparent" data-fill-palette-color="accent" x="44.60688812972973" fill-opacity="0.75"></rect><rect width="36.57764826637838" height="133.8206643891892" fill="#8af0ca" stroke="transparent" data-fill-palette-color="accent" x="89.21377625945946" fill-opacity="0.5"></rect></g></svg></g></svg></g></svg></g><g><path d="M245.816 0c68.262 0 123.6 55.338 123.6 123.6 0 68.262-55.338 123.6-123.6 123.6-46.601 0-87.179-25.79-108.239-63.877l5.008 0c20.632 35.585 59.137 59.519 103.231 59.52 65.856 0 119.243-53.387 119.242-119.243 0-65.856-53.387-119.243-119.242-119.243-44.094 0-82.599 23.934-103.231 59.52l-5.008 0c21.06-38.086 61.638-63.877 108.239-63.877z" fill="#ffffff" stroke="transparent" data-fill-palette-color="tertiary"></path></g></svg></g><defs></defs></svg><rect width="395.52" height="247.2" fill="none" stroke="none" visibility="hidden"></rect></g></svg></g></svg>